<?xml version="1.0" encoding="UTF-8" standalone="no"?><!-- Generator: Gravit.io --><svg xmlns="http://www.w3.org/2000/svg" xmlns:xlink="http://www.w3.org/1999/xlink" style="isolation:isolate" viewBox="0 0 95.669 95.669" width="95.669pt" height="95.669pt"><defs><clipPath id="_clipPath_Ne5UVrnktNkJtjTxnggBAvlUlB3I8eWo"><rect width="95.669" height="95.669"/></clipPath></defs><g clip-path="url(#_clipPath_Ne5UVrnktNkJtjTxnggBAvlUlB3I8eWo)"><path d=" M 26.736 38.891 L 77.723 38.891 L 77.723 56.778 L 26.736 56.778 L 26.736 38.891 Z " fill="none"/><path d=" M 60.197 46.798 C 59.684 46.798 59.299 46.69 59.043 46.476 C 58.787 46.261 58.658 45.962 58.658 45.577 C 58.658 45.192 58.826 44.87 59.162 44.611 C 59.498 44.353 59.916 44.223 60.417 44.223 C 60.869 44.223 61.235 44.322 61.516 44.521 C 61.797 44.718 61.937 44.999 61.937 45.362 C 61.937 45.802 61.778 46.152 61.461 46.41 C 61.143 46.669 60.722 46.798 60.197 46.798 L 60.197 46.798 L 60.197 46.798 L 60.197 46.798 L 60.197 46.798 L 60.197 46.798 L 60.197 46.798 L 60.197 46.798 L 60.197 46.798 Z  M 76.886 53.982 C 77.234 53.982 77.545 53.767 77.82 53.338 C 78.095 52.909 78.351 52.15 78.571 51.044 L 78.919 49.377 C 78.424 49.394 77.948 49.559 77.527 49.889 C 77.106 50.236 76.757 50.681 76.501 51.226 C 76.244 51.77 76.116 52.364 76.116 52.975 C 76.116 53.305 76.189 53.553 76.336 53.718 C 76.464 53.899 76.648 53.982 76.886 53.982 L 76.886 53.982 L 76.886 53.982 L 76.886 53.982 L 76.886 53.982 L 76.886 53.982 L 76.886 53.982 L 76.886 53.982 L 76.886 53.982 L 76.886 53.982 Z  M 36.312 45.186 L 36.312 45.186 Q 36.312 46.803 37.466 47.579 L 37.466 47.579 L 37.466 47.579 Q 38.181 45.73 38.181 44.526 L 38.181 44.526 L 38.181 44.526 Q 38.181 43.833 37.979 43.511 L 37.979 43.511 L 37.979 43.511 Q 37.778 43.189 37.43 43.189 L 37.43 43.189 L 37.43 43.189 Q 36.935 43.189 36.623 43.709 L 36.623 43.709 L 36.623 43.709 Q 36.312 44.229 36.312 45.186 L 36.312 45.186 L 36.312 45.186 L 36.312 45.186 L 36.312 45.186 L 36.312 45.186 L 36.312 45.186 L 36.312 45.186 L 36.312 45.186 L 36.312 45.186 L 36.312 45.186 L 36.312 45.186 Z  M 43.103 53.982 L 43.103 53.982 Q 43.506 53.982 43.872 53.553 L 43.872 53.553 L 43.872 53.553 Q 44.239 53.124 44.404 52.414 L 44.404 52.414 L 45.081 49.377 L 45.081 49.377 Q 44.312 49.394 43.662 49.897 L 43.662 49.897 L 43.662 49.897 Q 43.011 50.401 42.627 51.226 L 42.627 51.226 L 42.627 51.226 Q 42.242 52.051 42.242 52.975 L 42.242 52.975 L 42.242 52.975 Q 42.242 53.487 42.471 53.734 L 42.471 53.734 L 42.471 53.734 Q 42.7 53.982 43.103 53.982 L 43.103 53.982 L 43.103 53.982 L 43.103 53.982 L 43.103 53.982 L 43.103 53.982 L 43.103 53.982 L 43.103 53.982 L 43.103 53.982 L 43.103 53.982 Z  M 66.914 41.654 L 66.914 41.654 Q 66.493 41.654 65.961 43.024 L 65.961 43.024 L 65.961 43.024 Q 65.43 44.394 65.027 46.423 L 65.027 46.423 L 65.027 46.423 Q 64.624 48.453 64.588 50.318 L 64.588 50.318 L 64.588 50.318 Q 65.888 48.387 66.658 46.448 L 66.658 46.448 L 66.658 46.448 Q 67.427 44.509 67.427 42.908 L 67.427 42.908 L 67.427 42.908 Q 67.427 41.654 66.914 41.654 L 66.914 41.654 L 66.914 41.654 L 66.914 41.654 L 66.914 41.654 L 66.914 41.654 L 66.914 41.654 Z  M 72.887 41.654 L 72.887 41.654 Q 72.466 41.654 71.935 43.024 L 71.935 43.024 L 71.935 43.024 Q 71.404 44.394 71.001 46.423 L 71.001 46.423 L 71.001 46.423 Q 70.598 48.453 70.561 50.318 L 70.561 50.318 L 70.561 50.318 Q 71.862 48.387 72.631 46.448 L 72.631 46.448 L 72.631 46.448 Q 73.4 44.509 73.4 42.908 L 73.4 42.908 L 73.4 42.908 Q 73.4 41.654 72.887 41.654 L 72.887 41.654 L 72.887 41.654 L 72.887 41.654 L 72.887 41.654 L 72.887 41.654 Z  M 68.434 52.335 Q 67.714 53.079 67.225 53.413 L 67.225 53.413 L 67.225 53.413 Q 66.658 53.8 65.907 53.8 L 65.907 53.8 L 65.907 53.8 Q 65.43 53.8 65.137 53.512 L 65.137 53.512 L 65.137 53.512 Q 64.844 53.223 64.716 52.546 L 64.716 52.546 L 64.716 52.546 Q 66.786 50.005 67.995 47.414 L 67.995 47.414 L 67.995 47.414 Q 69.204 44.823 69.204 42.859 L 69.204 42.859 L 69.204 42.859 Q 69.204 41.489 68.7 40.755 L 68.7 40.755 L 68.7 40.755 Q 68.196 40.02 67.317 40.02 L 67.317 40.02 L 67.317 40.02 Q 65.76 40.02 64.633 41.869 L 64.633 41.869 L 64.633 41.869 Q 63.507 43.717 62.93 46.291 L 62.93 46.291 L 62.93 46.291 Q 62.353 48.866 62.353 50.879 L 62.353 50.879 L 62.353 50.879 Q 62.353 51.744 62.485 52.476 Q 61.893 53.096 61.504 53.421 L 61.504 53.421 L 61.504 53.421 Q 61.01 53.833 60.68 53.833 L 60.68 53.833 L 60.68 53.833 Q 60.332 53.833 60.185 53.569 L 60.185 53.569 L 60.185 53.569 Q 60.039 53.305 60.039 52.81 L 60.039 52.81 L 60.039 52.81 Q 60.039 52.166 60.478 50.351 L 60.478 50.351 L 60.478 50.351 Q 60.826 48.849 60.826 48.437 L 60.826 48.437 L 60.826 48.437 Q 60.826 47.876 59.892 47.876 L 59.892 47.876 L 59.892 47.876 Q 59.288 47.876 59.013 48.074 L 59.013 48.074 L 59.013 48.074 Q 58.738 48.272 58.573 48.8 L 58.573 48.8 L 58.573 48.8 Q 58.244 49.807 58.033 50.97 L 58.033 50.97 L 58.033 50.97 Q 57.858 51.936 57.828 52.612 L 57.828 52.612 Q 57.328 53.121 56.985 53.396 L 56.985 53.396 L 56.985 53.396 Q 56.481 53.8 56.115 53.8 L 56.115 53.8 L 56.115 53.8 Q 55.584 53.8 55.584 53.14 L 55.584 53.14 L 55.584 53.14 Q 55.584 52.678 55.932 51.242 L 55.932 51.242 L 55.932 51.242 Q 56.334 49.559 56.334 48.915 L 56.334 48.915 L 56.334 48.915 Q 56.334 47.843 55.144 47.843 L 55.144 47.843 L 55.144 47.843 Q 54.539 47.843 53.816 48.222 L 53.816 48.222 L 53.816 48.222 Q 53.092 48.602 52.341 49.493 L 52.341 49.493 L 52.341 49.493 Q 51.59 50.384 50.986 51.803 L 50.986 51.803 L 50.986 51.803 Q 51.059 51.077 51.169 50.582 L 51.169 50.582 L 51.169 50.582 Q 51.279 50.087 51.462 49.427 L 51.462 49.427 L 51.462 49.427 Q 51.737 48.503 51.737 48.239 L 51.737 48.239 L 51.737 48.239 Q 51.737 48.008 51.59 47.925 L 51.59 47.925 L 51.59 47.925 Q 51.444 47.843 51.077 47.843 L 51.077 47.843 L 51.077 47.843 Q 50.399 47.843 50.024 48.066 L 50.024 48.066 L 50.024 48.066 Q 49.648 48.288 49.484 48.767 L 49.484 48.767 L 49.484 48.767 Q 48.843 50.593 48.808 52.61 Q 48.288 53.145 47.939 53.429 L 47.939 53.429 L 47.939 53.429 Q 47.444 53.833 47.096 53.833 L 47.096 53.833 L 47.096 53.833 Q 46.876 53.833 46.739 53.685 L 46.739 53.685 L 46.739 53.685 Q 46.602 53.536 46.602 53.289 L 46.602 53.289 L 46.602 53.289 Q 46.602 52.546 47.023 50.648 L 47.023 50.648 L 47.023 50.648 Q 47.298 49.344 47.298 48.998 L 47.298 48.998 L 47.298 48.998 Q 47.298 48.42 46.4 48.42 L 46.4 48.42 L 46.4 48.42 Q 45.979 48.42 45.594 48.486 L 45.594 48.486 L 45.594 48.486 Q 45.503 48.123 45.365 47.983 L 45.365 47.983 L 45.365 47.983 Q 45.228 47.843 44.825 47.843 L 44.825 47.843 L 44.825 47.843 Q 43.561 47.843 42.434 48.561 L 42.434 48.561 L 42.434 48.561 Q 42.39 48.589 42.347 48.617 L 42.347 48.617 Q 42.339 48.61 42.33 48.602 L 42.33 48.602 L 42.33 48.602 Q 42.137 48.437 41.716 48.437 L 41.716 48.437 L 41.716 48.437 L 41.716 48.437 L 41.716 48.437 L 41.716 48.437 L 41.716 48.437 Q 40.47 48.437 39.5 48.288 L 39.5 48.288 L 39.5 48.288 Q 40.415 46.044 40.415 44.146 L 40.415 44.146 L 40.415 44.146 Q 40.415 42.826 39.728 42.067 L 39.728 42.067 L 39.728 42.067 Q 39.041 41.308 37.869 41.308 L 37.869 41.308 L 37.869 41.308 Q 36.916 41.308 36.138 41.753 L 36.138 41.753 L 36.138 41.753 Q 35.36 42.199 34.911 43.098 L 34.911 43.098 L 34.911 43.098 Q 34.462 43.998 34.462 45.301 L 34.462 45.301 L 34.462 45.301 Q 34.462 46.605 35.03 47.604 L 35.03 47.604 L 35.03 47.604 Q 35.598 48.602 36.715 49.229 L 36.715 49.229 L 36.715 49.229 Q 35.781 51.028 34.663 52.216 L 34.663 52.216 L 34.663 52.216 Q 33.546 53.404 32.593 53.404 L 32.593 53.404 L 32.593 53.404 Q 31.659 53.404 31.192 52.092 L 31.192 52.092 L 31.192 52.092 Q 30.725 50.78 30.725 48.255 L 30.725 48.255 L 30.725 48.255 Q 30.725 45.846 31.274 42.875 L 31.274 42.875 L 31.274 42.875 Q 31.311 42.611 31.311 42.512 L 31.311 42.512 L 31.311 42.512 Q 31.311 41.572 30.102 41.572 L 30.102 41.572 L 30.102 41.572 Q 29.37 41.572 29.067 41.877 L 29.067 41.877 L 29.067 41.877 Q 28.765 42.182 28.6 43.04 L 28.6 43.04 L 28.6 43.04 Q 28.142 45.351 28.142 48.255 L 28.142 48.255 L 28.142 48.255 Q 28.142 51.655 29.076 53.652 L 29.076 53.652 L 29.076 53.652 Q 30.011 55.649 31.916 55.649 L 31.916 55.649 L 31.916 55.649 Q 33.766 55.649 35.607 54.023 L 35.607 54.023 L 35.607 54.023 Q 37.448 52.397 38.748 49.939 L 38.748 49.939 L 38.748 49.939 Q 39.677 50.128 40.827 50.14 Q 40.724 50.295 40.63 50.459 L 40.63 50.459 L 40.63 50.459 Q 39.952 51.638 39.952 52.959 L 39.952 52.959 L 39.952 52.959 Q 39.952 54.163 40.63 54.906 L 40.63 54.906 L 40.63 54.906 Q 41.308 55.649 42.444 55.649 L 42.444 55.649 L 42.444 55.649 L 42.444 55.649 L 42.444 55.649 Q 43.891 55.649 44.843 54.262 L 44.843 54.262 L 44.843 54.262 Q 45.1 54.906 45.603 55.277 L 45.603 55.277 L 45.603 55.277 Q 46.107 55.649 46.712 55.649 L 46.712 55.649 L 46.712 55.649 Q 47.499 55.649 48.342 55.071 L 48.342 55.071 L 48.342 55.071 Q 48.663 54.851 48.97 54.593 L 48.97 54.593 Q 49.022 54.797 49.09 54.955 L 49.09 54.955 L 49.09 54.955 Q 49.374 55.616 50.07 55.616 L 50.07 55.616 L 50.07 55.616 L 50.07 55.616 Q 50.638 55.616 50.903 55.343 L 50.903 55.343 L 50.903 55.343 Q 51.169 55.071 51.37 54.295 L 51.37 54.295 L 51.37 54.295 Q 51.645 53.289 52.094 52.381 L 52.094 52.381 L 52.094 52.381 Q 52.543 51.473 52.973 50.921 L 52.973 50.921 L 52.973 50.921 Q 53.404 50.368 53.642 50.368 L 53.642 50.368 L 53.642 50.368 Q 53.843 50.368 53.843 50.632 L 53.843 50.632 L 53.843 50.632 Q 53.843 51.028 53.605 52.067 L 53.605 52.067 L 53.605 52.067 Q 53.349 53.256 53.349 53.718 L 53.349 53.718 L 53.349 53.718 Q 53.349 54.642 53.825 55.129 L 53.825 55.129 L 53.825 55.129 Q 54.301 55.616 55.235 55.616 L 55.235 55.616 L 55.235 55.616 Q 56.389 55.616 57.296 55.054 L 57.296 55.054 L 57.296 55.054 Q 57.72 54.792 58.118 54.461 Q 58.222 54.692 58.363 54.889 L 58.363 54.889 L 58.363 54.889 Q 58.903 55.649 60.094 55.649 L 60.094 55.649 L 60.094 55.649 L 60.094 55.649 Q 61.472 55.649 63.033 54.12 L 63.033 54.12 Q 63.08 54.209 63.131 54.295 L 63.131 54.295 L 63.131 54.295 Q 63.91 55.616 65.522 55.616 L 65.522 55.616 L 65.522 55.616 Q 66.694 55.616 67.619 55.054 L 67.619 55.054 L 67.619 55.054 Q 68.326 54.625 68.952 54.014 Q 69.025 54.159 69.105 54.295 L 69.105 54.295 L 69.105 54.295 Q 69.883 55.616 71.495 55.616 L 71.495 55.616 L 71.495 55.616 Q 72.668 55.616 73.593 55.054 L 73.593 55.054 L 73.593 55.054 Q 73.929 54.85 74.248 54.605 C 74.314 54.711 74.387 54.811 74.468 54.906 C 74.907 55.401 75.475 55.649 76.171 55.649 L 76.171 55.649 L 76.171 55.649 L 76.171 55.649 L 76.171 55.649 L 76.171 55.649 L 76.171 55.649 L 76.171 55.649 C 77.106 55.649 77.747 55.17 78.131 54.229 L 78.113 54.493 C 78.113 54.906 78.223 55.186 78.406 55.368 C 78.626 55.55 78.919 55.649 79.34 55.649 C 79.761 55.649 80.073 55.55 80.275 55.368 C 80.458 55.186 80.549 54.889 80.549 54.477 C 80.549 53.718 80.586 53.025 80.659 52.414 C 80.732 51.803 80.842 51.176 80.971 50.5 C 81.099 49.873 81.154 49.427 81.154 49.179 C 81.154 48.932 81.08 48.75 80.916 48.618 C 80.751 48.486 80.531 48.42 80.238 48.42 C 79.963 48.42 79.707 48.437 79.469 48.486 C 79.413 48.239 79.34 48.074 79.249 47.975 C 79.157 47.892 78.974 47.843 78.699 47.843 C 77.857 47.843 77.069 48.074 76.318 48.552 C 75.567 49.031 74.962 49.675 74.504 50.45 C 74.056 51.225 73.837 52.048 73.827 52.903 L 73.827 52.903 Q 73.476 53.224 73.199 53.413 L 73.199 53.413 L 73.199 53.413 Q 72.631 53.8 71.88 53.8 L 71.88 53.8 L 71.88 53.8 Q 71.404 53.8 71.111 53.512 L 71.111 53.512 L 71.111 53.512 Q 70.817 53.223 70.689 52.546 L 70.689 52.546 L 70.689 52.546 Q 72.759 50.005 73.968 47.414 L 73.968 47.414 L 73.968 47.414 Q 75.177 44.823 75.177 42.859 L 75.177 42.859 L 75.177 42.859 Q 75.177 41.489 74.673 40.755 L 74.673 40.755 L 74.673 40.755 Q 74.17 40.02 73.29 40.02 L 73.29 40.02 L 73.29 40.02 Q 71.734 40.02 70.607 41.869 L 70.607 41.869 L 70.607 41.869 Q 69.48 43.717 68.903 46.291 L 68.903 46.291 L 68.903 46.291 Q 68.326 48.866 68.326 50.879 L 68.326 50.879 L 68.326 50.879 Q 68.326 51.661 68.434 52.335 L 68.434 52.335 L 68.434 52.335 Z  M 12.676 13.952 L 82.993 13.952 C 87.481 13.952 91.125 17.596 91.125 22.084 L 91.125 73.585 C 91.125 78.073 87.481 81.717 82.993 81.717 L 12.676 81.717 C 8.188 81.717 4.544 78.073 4.544 73.585 L 4.544 22.084 C 4.544 17.596 8.188 13.952 12.676 13.952 L 12.676 13.952 Z  M 14.516 49.932 L 14.516 52.555 L 22.451 49.025 L 22.451 46.644 L 14.516 43.114 L 14.516 45.721 L 20.313 47.826 L 14.516 49.932 L 14.516 49.932 Z " fill-rule="evenodd" fill="rgb(0,0,0)"/></g></svg>