<?xml version="1.0" encoding="UTF-8" standalone="no"?><!-- Generator: Gravit.io --><svg xmlns="http://www.w3.org/2000/svg" xmlns:xlink="http://www.w3.org/1999/xlink" style="isolation:isolate" viewBox="0 0 95.669 95.669" width="95.669pt" height="95.669pt"><defs><clipPath id="_clipPath_VPFILLZwevHLTilfHd2xrCzWxqntdh4B"><rect width="95.669" height="95.669"/></clipPath></defs><g clip-path="url(#_clipPath_VPFILLZwevHLTilfHd2xrCzWxqntdh4B)"><path d=" M 12.676 16.858 L 82.993 16.858 C 87.481 16.858 91.125 20.502 91.125 24.99 L 91.125 76.492 C 91.125 80.98 87.481 84.624 82.993 84.624 L 12.676 84.624 C 8.188 84.624 4.544 80.98 4.544 76.492 L 4.544 24.99 C 4.544 20.502 8.188 16.858 12.676 16.858 Z " fill="rgb(36,36,36)"/><linearGradient id="_lgradient_0" x1="0.4999999999999999" y1="1" x2="0.49999999999999994" y2="0" gradientTransform="matrix(86.581,0,0,67.765,4.544,11.046)" gradientUnits="userSpaceOnUse"><stop offset="0%" stop-opacity="1" style="stop-color:rgb(68,68,68)"/><stop offset="100%" stop-opacity="1" style="stop-color:rgb(70,70,70)"/></linearGradient><path d=" M 12.676 11.046 L 82.993 11.046 C 87.481 11.046 91.125 14.69 91.125 19.178 L 91.125 70.679 C 91.125 75.167 87.481 78.811 82.993 78.811 L 12.676 78.811 C 8.188 78.811 4.544 75.167 4.544 70.679 L 4.544 19.178 C 4.544 14.69 8.188 11.046 12.676 11.046 Z " fill="url(#_lgradient_0)"/><path d=" M 26.736 35.985 L 77.723 35.985 L 77.723 53.872 L 26.736 53.872 L 26.736 35.985 L 26.736 35.985 Z " fill="none"/><path d=" M 14.516 47.026 L 14.516 49.649 L 22.451 46.119 L 22.451 43.738 L 14.516 40.208 L 14.516 42.815 L 20.313 44.92 L 14.516 47.026 L 14.516 47.026 Z " fill="rgb(255,191,72)"/><path d=" M 68.434 49.429 Q 67.714 50.173 67.225 50.507 L 67.225 50.507 L 67.225 50.507 Q 66.658 50.894 65.907 50.894 L 65.907 50.894 L 65.907 50.894 Q 65.43 50.894 65.137 50.606 L 65.137 50.606 L 65.137 50.606 Q 64.844 50.317 64.716 49.64 L 64.716 49.64 L 64.716 49.64 Q 66.786 47.099 67.995 44.508 L 67.995 44.508 L 67.995 44.508 Q 69.204 41.917 69.204 39.953 L 69.204 39.953 L 69.204 39.953 Q 69.204 38.583 68.7 37.849 L 68.7 37.849 L 68.7 37.849 Q 68.196 37.114 67.317 37.114 L 67.317 37.114 L 67.317 37.114 Q 65.76 37.114 64.633 38.963 L 64.633 38.963 L 64.633 38.963 Q 63.507 40.811 62.93 43.385 L 62.93 43.385 L 62.93 43.385 Q 62.353 45.96 62.353 47.973 L 62.353 47.973 L 62.353 47.973 Q 62.353 48.838 62.485 49.57 Q 61.893 50.19 61.504 50.515 L 61.504 50.515 L 61.504 50.515 Q 61.01 50.927 60.68 50.927 L 60.68 50.927 L 60.68 50.927 Q 60.332 50.927 60.185 50.663 L 60.185 50.663 L 60.185 50.663 Q 60.039 50.399 60.039 49.904 L 60.039 49.904 L 60.039 49.904 Q 60.039 49.26 60.478 47.445 L 60.478 47.445 L 60.478 47.445 Q 60.826 45.943 60.826 45.531 L 60.826 45.531 L 60.826 45.531 Q 60.826 44.97 59.892 44.97 L 59.892 44.97 L 59.892 44.97 Q 59.288 44.97 59.013 45.168 L 59.013 45.168 L 59.013 45.168 Q 58.738 45.366 58.573 45.894 L 58.573 45.894 L 58.573 45.894 Q 58.244 46.901 58.033 48.064 L 58.033 48.064 L 58.033 48.064 Q 57.858 49.03 57.828 49.706 L 57.828 49.706 Q 57.328 50.215 56.985 50.49 L 56.985 50.49 L 56.985 50.49 Q 56.481 50.894 56.115 50.894 L 56.115 50.894 L 56.115 50.894 Q 55.584 50.894 55.584 50.234 L 55.584 50.234 L 55.584 50.234 Q 55.584 49.772 55.932 48.336 L 55.932 48.336 L 55.932 48.336 Q 56.334 46.653 56.334 46.009 L 56.334 46.009 L 56.334 46.009 Q 56.334 44.937 55.144 44.937 L 55.144 44.937 L 55.144 44.937 Q 54.539 44.937 53.816 45.316 L 53.816 45.316 L 53.816 45.316 Q 53.092 45.696 52.341 46.587 L 52.341 46.587 L 52.341 46.587 Q 51.59 47.478 50.986 48.897 L 50.986 48.897 L 50.986 48.897 Q 51.059 48.171 51.169 47.676 L 51.169 47.676 L 51.169 47.676 Q 51.279 47.181 51.462 46.521 L 51.462 46.521 L 51.462 46.521 Q 51.737 45.597 51.737 45.333 L 51.737 45.333 L 51.737 45.333 Q 51.737 45.102 51.59 45.019 L 51.59 45.019 L 51.59 45.019 Q 51.444 44.937 51.077 44.937 L 51.077 44.937 L 51.077 44.937 Q 50.399 44.937 50.024 45.16 L 50.024 45.16 L 50.024 45.16 Q 49.648 45.382 49.484 45.861 L 49.484 45.861 L 49.484 45.861 Q 48.843 47.687 48.808 49.704 Q 48.288 50.239 47.939 50.523 L 47.939 50.523 L 47.939 50.523 Q 47.444 50.927 47.096 50.927 L 47.096 50.927 L 47.096 50.927 Q 46.876 50.927 46.739 50.779 L 46.739 50.779 L 46.739 50.779 Q 46.602 50.63 46.602 50.383 L 46.602 50.383 L 46.602 50.383 Q 46.602 49.64 47.023 47.742 L 47.023 47.742 L 47.023 47.742 Q 47.298 46.438 47.298 46.092 L 47.298 46.092 L 47.298 46.092 Q 47.298 45.514 46.4 45.514 L 46.4 45.514 L 46.4 45.514 Q 45.979 45.514 45.594 45.58 L 45.594 45.58 L 45.594 45.58 Q 45.503 45.217 45.365 45.077 L 45.365 45.077 L 45.365 45.077 Q 45.228 44.937 44.825 44.937 L 44.825 44.937 L 44.825 44.937 Q 43.561 44.937 42.434 45.655 L 42.434 45.655 L 42.434 45.655 Q 42.39 45.683 42.347 45.711 L 42.347 45.711 Q 42.339 45.704 42.33 45.696 L 42.33 45.696 L 42.33 45.696 Q 42.137 45.531 41.716 45.531 L 41.716 45.531 L 41.716 45.531 L 41.716 45.531 L 41.716 45.531 L 41.716 45.531 L 41.716 45.531 Q 40.47 45.531 39.5 45.382 L 39.5 45.382 L 39.5 45.382 Q 40.415 43.138 40.415 41.24 L 40.415 41.24 L 40.415 41.24 Q 40.415 39.92 39.728 39.161 L 39.728 39.161 L 39.728 39.161 Q 39.041 38.402 37.869 38.402 L 37.869 38.402 L 37.869 38.402 Q 36.916 38.402 36.138 38.847 L 36.138 38.847 L 36.138 38.847 Q 35.36 39.293 34.911 40.192 L 34.911 40.192 L 34.911 40.192 Q 34.462 41.092 34.462 42.395 L 34.462 42.395 L 34.462 42.395 Q 34.462 43.699 35.03 44.698 L 35.03 44.698 L 35.03 44.698 Q 35.598 45.696 36.715 46.323 L 36.715 46.323 L 36.715 46.323 Q 35.781 48.122 34.663 49.31 L 34.663 49.31 L 34.663 49.31 Q 33.546 50.498 32.593 50.498 L 32.593 50.498 L 32.593 50.498 Q 31.659 50.498 31.192 49.186 L 31.192 49.186 L 31.192 49.186 Q 30.725 47.874 30.725 45.349 L 30.725 45.349 L 30.725 45.349 Q 30.725 42.94 31.274 39.969 L 31.274 39.969 L 31.274 39.969 Q 31.311 39.705 31.311 39.606 L 31.311 39.606 L 31.311 39.606 Q 31.311 38.666 30.102 38.666 L 30.102 38.666 L 30.102 38.666 Q 29.37 38.666 29.067 38.971 L 29.067 38.971 L 29.067 38.971 Q 28.765 39.276 28.6 40.134 L 28.6 40.134 L 28.6 40.134 Q 28.142 42.445 28.142 45.349 L 28.142 45.349 L 28.142 45.349 Q 28.142 48.749 29.076 50.746 L 29.076 50.746 L 29.076 50.746 Q 30.011 52.743 31.916 52.743 L 31.916 52.743 L 31.916 52.743 Q 33.766 52.743 35.607 51.117 L 35.607 51.117 L 35.607 51.117 Q 37.448 49.491 38.748 47.033 L 38.748 47.033 L 38.748 47.033 Q 39.677 47.222 40.827 47.234 Q 40.724 47.389 40.63 47.553 L 40.63 47.553 L 40.63 47.553 Q 39.952 48.732 39.952 50.053 L 39.952 50.053 L 39.952 50.053 Q 39.952 51.257 40.63 52 L 40.63 52 L 40.63 52 Q 41.308 52.743 42.444 52.743 L 42.444 52.743 L 42.444 52.743 L 42.444 52.743 L 42.444 52.743 Q 43.891 52.743 44.843 51.356 L 44.843 51.356 L 44.843 51.356 Q 45.1 52 45.603 52.371 L 45.603 52.371 L 45.603 52.371 Q 46.107 52.743 46.712 52.743 L 46.712 52.743 L 46.712 52.743 Q 47.499 52.743 48.342 52.165 L 48.342 52.165 L 48.342 52.165 Q 48.663 51.945 48.97 51.687 L 48.97 51.687 Q 49.022 51.891 49.09 52.049 L 49.09 52.049 L 49.09 52.049 Q 49.374 52.71 50.07 52.71 L 50.07 52.71 L 50.07 52.71 L 50.07 52.71 Q 50.638 52.71 50.903 52.437 L 50.903 52.437 L 50.903 52.437 Q 51.169 52.165 51.37 51.389 L 51.37 51.389 L 51.37 51.389 Q 51.645 50.383 52.094 49.475 L 52.094 49.475 L 52.094 49.475 Q 52.543 48.567 52.973 48.015 L 52.973 48.015 L 52.973 48.015 Q 53.404 47.462 53.642 47.462 L 53.642 47.462 L 53.642 47.462 Q 53.843 47.462 53.843 47.726 L 53.843 47.726 L 53.843 47.726 Q 53.843 48.122 53.605 49.161 L 53.605 49.161 L 53.605 49.161 Q 53.349 50.35 53.349 50.812 L 53.349 50.812 L 53.349 50.812 Q 53.349 51.736 53.825 52.223 L 53.825 52.223 L 53.825 52.223 Q 54.301 52.71 55.235 52.71 L 55.235 52.71 L 55.235 52.71 Q 56.389 52.71 57.296 52.148 L 57.296 52.148 L 57.296 52.148 Q 57.72 51.886 58.118 51.555 Q 58.222 51.786 58.363 51.983 L 58.363 51.983 L 58.363 51.983 Q 58.903 52.743 60.094 52.743 L 60.094 52.743 L 60.094 52.743 L 60.094 52.743 Q 61.472 52.743 63.033 51.214 L 63.033 51.214 Q 63.08 51.303 63.131 51.389 L 63.131 51.389 L 63.131 51.389 Q 63.91 52.71 65.522 52.71 L 65.522 52.71 L 65.522 52.71 Q 66.694 52.71 67.619 52.148 L 67.619 52.148 L 67.619 52.148 Q 68.326 51.719 68.952 51.108 Q 69.025 51.253 69.105 51.389 L 69.105 51.389 L 69.105 51.389 Q 69.883 52.71 71.495 52.71 L 71.495 52.71 L 71.495 52.71 Q 72.668 52.71 73.593 52.148 L 73.593 52.148 L 73.593 52.148 Q 73.929 51.944 74.248 51.699 C 74.314 51.805 74.387 51.905 74.468 52 C 74.907 52.495 75.475 52.743 76.171 52.743 L 76.171 52.743 L 76.171 52.743 L 76.171 52.743 L 76.171 52.743 L 76.171 52.743 L 76.171 52.743 L 76.171 52.743 C 77.106 52.743 77.747 52.264 78.131 51.323 L 78.113 51.587 C 78.113 52 78.223 52.28 78.406 52.462 C 78.626 52.644 78.919 52.743 79.34 52.743 C 79.761 52.743 80.073 52.644 80.275 52.462 C 80.458 52.28 80.549 51.983 80.549 51.571 C 80.549 50.812 80.586 50.119 80.659 49.508 C 80.732 48.897 80.842 48.27 80.971 47.594 C 81.099 46.967 81.154 46.521 81.154 46.273 C 81.154 46.026 81.08 45.844 80.916 45.712 C 80.751 45.58 80.531 45.514 80.238 45.514 C 79.963 45.514 79.707 45.531 79.469 45.58 C 79.413 45.333 79.34 45.168 79.249 45.069 C 79.157 44.986 78.974 44.937 78.699 44.937 C 77.857 44.937 77.069 45.168 76.318 45.646 C 75.567 46.125 74.962 46.769 74.504 47.544 C 74.056 48.319 73.837 49.142 73.827 49.997 L 73.827 49.997 Q 73.476 50.318 73.199 50.507 L 73.199 50.507 L 73.199 50.507 Q 72.631 50.894 71.88 50.894 L 71.88 50.894 L 71.88 50.894 Q 71.404 50.894 71.111 50.606 L 71.111 50.606 L 71.111 50.606 Q 70.817 50.317 70.689 49.64 L 70.689 49.64 L 70.689 49.64 Q 72.759 47.099 73.968 44.508 L 73.968 44.508 L 73.968 44.508 Q 75.177 41.917 75.177 39.953 L 75.177 39.953 L 75.177 39.953 Q 75.177 38.583 74.673 37.849 L 74.673 37.849 L 74.673 37.849 Q 74.17 37.114 73.29 37.114 L 73.29 37.114 L 73.29 37.114 Q 71.734 37.114 70.607 38.963 L 70.607 38.963 L 70.607 38.963 Q 69.48 40.811 68.903 43.385 L 68.903 43.385 L 68.903 43.385 Q 68.326 45.96 68.326 47.973 L 68.326 47.973 L 68.326 47.973 Q 68.326 48.755 68.434 49.429 Z  M 60.197 43.892 C 59.684 43.892 59.299 43.784 59.043 43.57 C 58.787 43.355 58.658 43.056 58.658 42.671 C 58.658 42.286 58.826 41.964 59.162 41.705 C 59.498 41.447 59.916 41.317 60.417 41.317 C 60.869 41.317 61.235 41.416 61.516 41.615 C 61.797 41.812 61.937 42.093 61.937 42.456 C 61.937 42.896 61.778 43.246 61.461 43.504 C 61.143 43.763 60.722 43.892 60.197 43.892 L 60.197 43.892 L 60.197 43.892 L 60.197 43.892 L 60.197 43.892 L 60.197 43.892 L 60.197 43.892 Z  M 76.886 51.076 C 77.234 51.076 77.545 50.861 77.82 50.432 C 78.095 50.003 78.351 49.244 78.571 48.138 L 78.919 46.471 C 78.424 46.488 77.948 46.653 77.527 46.983 C 77.106 47.33 76.757 47.775 76.501 48.32 C 76.244 48.864 76.116 49.458 76.116 50.069 C 76.116 50.399 76.189 50.647 76.336 50.812 C 76.464 50.993 76.648 51.076 76.886 51.076 L 76.886 51.076 L 76.886 51.076 L 76.886 51.076 L 76.886 51.076 L 76.886 51.076 L 76.886 51.076 L 76.886 51.076 Z  M 36.312 42.28 L 36.312 42.28 Q 36.312 43.897 37.466 44.673 L 37.466 44.673 L 37.466 44.673 Q 38.181 42.824 38.181 41.62 L 38.181 41.62 L 38.181 41.62 Q 38.181 40.927 37.979 40.605 L 37.979 40.605 L 37.979 40.605 Q 37.778 40.283 37.43 40.283 L 37.43 40.283 L 37.43 40.283 Q 36.935 40.283 36.623 40.803 L 36.623 40.803 L 36.623 40.803 Q 36.312 41.323 36.312 42.28 L 36.312 42.28 L 36.312 42.28 L 36.312 42.28 L 36.312 42.28 L 36.312 42.28 L 36.312 42.28 L 36.312 42.28 L 36.312 42.28 L 36.312 42.28 Z  M 43.103 51.076 L 43.103 51.076 Q 43.506 51.076 43.872 50.647 L 43.872 50.647 L 43.872 50.647 Q 44.239 50.218 44.404 49.508 L 44.404 49.508 L 45.081 46.471 L 45.081 46.471 Q 44.312 46.488 43.662 46.991 L 43.662 46.991 L 43.662 46.991 Q 43.011 47.495 42.627 48.32 L 42.627 48.32 L 42.627 48.32 Q 42.242 49.145 42.242 50.069 L 42.242 50.069 L 42.242 50.069 Q 42.242 50.581 42.471 50.828 L 42.471 50.828 L 42.471 50.828 Q 42.7 51.076 43.103 51.076 L 43.103 51.076 L 43.103 51.076 L 43.103 51.076 L 43.103 51.076 L 43.103 51.076 L 43.103 51.076 L 43.103 51.076 Z  M 66.914 38.748 L 66.914 38.748 Q 66.493 38.748 65.961 40.118 L 65.961 40.118 L 65.961 40.118 Q 65.43 41.488 65.027 43.517 L 65.027 43.517 L 65.027 43.517 Q 64.624 45.547 64.588 47.412 L 64.588 47.412 L 64.588 47.412 Q 65.888 45.481 66.658 43.542 L 66.658 43.542 L 66.658 43.542 Q 67.427 41.603 67.427 40.002 L 67.427 40.002 L 67.427 40.002 Q 67.427 38.748 66.914 38.748 L 66.914 38.748 L 66.914 38.748 L 66.914 38.748 L 66.914 38.748 Z  M 72.887 38.748 L 72.887 38.748 Q 72.466 38.748 71.935 40.118 L 71.935 40.118 L 71.935 40.118 Q 71.404 41.488 71.001 43.517 L 71.001 43.517 L 71.001 43.517 Q 70.598 45.547 70.561 47.412 L 70.561 47.412 L 70.561 47.412 Q 71.862 45.481 72.631 43.542 L 72.631 43.542 L 72.631 43.542 Q 73.4 41.603 73.4 40.002 L 73.4 40.002 L 73.4 40.002 Q 73.4 38.748 72.887 38.748 L 72.887 38.748 L 72.887 38.748 L 72.887 38.748 Z " fill-rule="evenodd" fill="rgb(255,191,72)"/></g></svg>